<?xml version="1.0" encoding="utf-8"?>
<!-- Generator: Adobe Illustrator 25.4.1, SVG Export Plug-In . SVG Version: 6.00 Build 0)  -->
<svg version="1.1" id="Livello_1" xmlns="http://www.w3.org/2000/svg" xmlns:xlink="http://www.w3.org/1999/xlink" x="0px" y="0px"
	 viewBox="0 0 668.38 618.89" style="enable-background:new 0 0 668.38 618.89;" xml:space="preserve">
<style type="text/css">
	.st0{fill:#B3B3B3;}
</style>
<g>
	<path class="st0" d="M283.46,192.51c-0.3,23.45-19.31,42.17-42.73,42.07c-23.37-0.1-42.44-19.21-42.36-42.47
		c0.09-23.48,19.47-42.59,43-42.4C264.61,149.9,283.75,169.36,283.46,192.51z"/>
	<g>
		<path class="st0" d="M132.4,439.81l-28.95,28.95c-5.01-1.33-10.03-2.65-15.05-3.97c-20.56-5.39-33.41-18.05-37.92-38.96
			c-0.1-0.43-0.53-0.79-0.81-1.18v-13.94c9.3-31.09,18.59-62.17,27.89-93.25c7.61-25.39,15.23-50.78,22.85-76.17
			c0.4-1.34,0.86-2.67,2.29-3.83v5.2c0,44.48-0.31,88.97,0.11,133.44C103.07,402.73,112.88,424.21,132.4,439.81z"/>
		<path class="st0" d="M490.85,457.77c-0.54,1.95-0.91,3.45-1.37,4.91c-5.89,18.81-11.77,37.63-17.71,56.43
			c-8.17,25.89-32.89,39.49-59.29,32.43c-71.38-19.06-142.74-38.2-214.1-57.32l36.43-36.43c82.92-0.05,165.84-0.02,248.76-0.02
			H490.85z"/>
		<path class="st0" d="M189.93,128.55c84.58-0.02,169.15-0.02,253.73,0l42.58-42.59c-98.47-0.01-196.95-0.01-295.42,0
			c-33.5,0-56.21,22.7-56.23,56.28c-0.03,75.87-0.03,151.74,0.05,227.62c0.01,4.78,0.35,9.67,1.4,14.32
			c3.05,13.47,10.28,24.31,20.43,31.56l133.4-133.4c-5.23-5.31-11.24-9.35-18.61-11.04c-14.1-3.23-26.22,0.53-36.41,10.7
			c-17.62,17.59-35.22,35.2-52.8,52.83c-1.29,1.29-2.31,2.84-3.45,4.27c-0.37-0.18-0.74-0.36-1.11-0.53
			c-0.11-1.37-0.3-2.74-0.3-4.11c-0.01-64.41-0.02-128.81,0-193.21C177.19,132.28,180.9,128.55,189.93,128.55z"/>
		<path class="st0" d="M240.73,234.59c-23.37-0.1-42.43-19.21-42.35-42.47c0.08-23.48,19.47-42.59,43-42.4
			c23.24,0.19,42.37,19.65,42.08,42.79C283.16,215.96,264.15,234.68,240.73,234.59z"/>
	</g>
	<g>
		<path class="st0" d="M559.19,133.41l59.52-59.52l-27.7-27.7l-10.03-10.03l-54.05,54.05l-38.34,38.34L333.33,283.81l-21.22,21.22
			L191.26,425.88L72.14,545l37.73,37.73l156.82-156.82c26.74-0.01,53.48-0.02,80.23-0.02c52.47,0,104.93,0.06,157.4-0.02
			c32.75-0.05,55.37-22.75,55.38-55.47c0.03-76.21,0.02-152.41,0-228.62C559.7,138.91,559.53,136.11,559.19,133.41z M517.1,286.35
			c0,0.62-0.17,1.24-0.43,2.95c-16.99-19.82-33.29-38.83-49.58-57.85c-0.91-1.06-1.83-2.13-2.74-3.2l52.76-52.76
			C517.13,212.44,517.11,249.4,517.1,286.35z"/>
	</g>
</g>
</svg>
